<svg width="788" height="604" viewBox="0 0 788 604" fill="none" xmlns="http://www.w3.org/2000/svg">
<path d="M67.9 97.9H287.8C279.2 88.1 264.7 84.6 251.9 87.4C245.5 82.1 239 76.3 232.6 70.9C225.1 64.6 217.5 58.3 208.4 54.7C199.3 51.1 188.4 50.7 180.3 56C172.2 61.3 168.3 73.4 173.8 81.4C169 76.9 149.9 64.2 137.5 77.9C134 81.8 134.4 88.2 130.8 92.1C125.4 97.9 108.6 94 100.7 92.9C77.2 89.7 81.5 97.9 67.9 97.9Z" fill="#C2D9F0"/>
<path d="M596.6 165.6C621.8 165.1 638.4 143.4 656.6 129.1C661.9 124.8 667.7 121.3 674 118.7C675.8 118 675 115.1 673.2 115.8C650.6 124.8 637.1 146.8 615.6 157.6C609.7 160.7 603.2 162.4 596.6 162.6C594.7 162.6 594.7 165.6 596.6 165.6Z" fill="#4B4065"/>
<path d="M627.3 395.7L635.8 418.1L681.8 387.7L668.4 427.9L698.3 416.4L687.3 445.6L719.8 454.7" fill="white"/>
<path d="M627.3 395.7L635.8 418.1L681.8 387.7L668.4 427.9L698.3 416.4L687.3 445.6L719.8 454.7" stroke="#F27932" stroke-width="2" stroke-miterlimit="10"/>
<path d="M392.1 95.2H582.1C590.7 95.2 597.7 102.2 597.7 110.8V493.6C597.7 502.2 590.7 509.2 582.1 509.2H392.1C383.5 509.2 376.5 502.2 376.5 493.6V110.7C376.5 102.1 383.5 95.2 392.1 95.2Z" fill="white" stroke="#495894" stroke-miterlimit="10"/>
<path d="M570 145.3H406.7V297.2H570V145.3Z" stroke="#B9C6E4" stroke-miterlimit="10"/>
<path d="M430.4 274H479.3" stroke="#B9C6E4" stroke-miterlimit="10"/>
<path d="M430.4 257.2H515.4" stroke="#B9C6E4" stroke-miterlimit="10"/>
<path d="M535.1 164.1H560.6" stroke="#B9C6E4" stroke-miterlimit="10"/>
<path opacity="0.26" d="M457.2 207.8C477.6 200.7 500 202.5 519 212.8C522.6 194.3 510.5 176.5 492 172.9C473.5 169.3 455.7 181.4 452.1 199.9C451.7 202 451.5 204.2 451.5 206.4C451.5 207.6 451.6 208.8 451.7 210C453.5 209.1 455.3 208.4 457.2 207.8Z" fill="#B9C6E4"/>
<path d="M546.5 322.6H570V474.5H406.7V322.6H422.1" stroke="#B9C6E4" stroke-miterlimit="10"/>
<path d="M430.4 451.4H479.3" stroke="#B9C6E4" stroke-miterlimit="10"/>
<path d="M430.4 434.5H515.4" stroke="#B9C6E4" stroke-miterlimit="10"/>
<path d="M535.1 341.4H560.6" stroke="#B9C6E4" stroke-miterlimit="10"/>
<path opacity="0.26" d="M502.9 354.3C491 357.6 478.6 358 466.5 355.4C450.9 365.9 446.8 387.1 457.3 402.7C467.8 418.3 489 422.4 504.6 411.9C520.2 401.4 524.3 380.2 513.8 364.6C511 360.4 507.3 356.9 502.9 354.3Z" fill="#B9C6E4"/>
<path d="M552.3 316.8L413.4 313.9L404.3 283.3L411.4 251.1H552.3L559.3 283.9L552.3 316.8Z" fill="white" stroke="#C2D9F0" stroke-miterlimit="10"/>
<path d="M431.8 265.5V302.3L447.6 291.5L463.3 302.3V265.5H431.8Z" fill="#B9C6E4"/>
<path d="M519.1 267.4L521.4 273.5C522 275 523.4 276 524.9 276.1L531.4 276.4C533.6 276.5 535.3 278.4 535.1 280.6C535 281.7 534.5 282.7 533.7 283.4L528.6 287.5C527.4 288.5 526.8 290.1 527.2 291.7L528.9 298C529.4 300.1 528.2 302.3 526 302.9C524.9 303.2 523.8 303 522.9 302.4L517.5 298.8C516.2 297.9 514.5 297.9 513.1 298.8L507.7 302.4C505.8 303.6 503.4 303 502.2 301.1C501.6 300.2 501.4 299 501.7 298L503.4 291.7C503.8 290.2 503.3 288.5 502 287.5L496.9 283.4C495.2 282 495 279.5 496.4 277.8C497.1 276.9 498.1 276.4 499.2 276.4L505.7 276.1C507.3 276 508.7 275 509.2 273.5L511.5 267.4C512.3 265.4 514.7 264.4 516.7 265.2C517.9 265.6 518.7 266.4 519.1 267.4Z" stroke="#F7C689" stroke-miterlimit="10"/>
<path d="M440.7 345.4L456.6 353.2L420.6 426.6C418.4 431 413.1 432.8 408.7 430.7C404.3 428.5 402.5 423.2 404.6 418.8L440.7 345.4Z" fill="#495894"/>
<path d="M436.5 354L450.5 365.8L455.4 355.8L439 348.9L436.5 354Z" fill="#4B4065"/>
<path d="M542.7 232.6C569 265.9 563.4 314.2 530.2 340.5C497 366.8 448.6 361.2 422.3 328C396 294.7 401.6 246.4 434.8 220.1C441.5 214.8 449.1 210.6 457.2 207.8C488.1 196.9 522.4 206.9 542.7 232.6Z" stroke="#495894" stroke-width="7" stroke-miterlimit="10"/>
<path d="M254.3 257.2C248.1 249.2 245.7 238.8 245.4 228.7C245 217.7 247.9 206.7 247.1 196C246.4 185.9 248.6 175.8 253.6 167C263.9 148.8 286.3 137.3 307.1 142.6C315.1 144.6 322 149.6 329.7 152.8C343.9 158.8 362.6 156.2 376.5 149.5C376.6 149.8 376.4 152.7 376.5 153V247C370.5 256.1 362.6 265.2 352.9 270C343.2 274.8 331.7 276.3 321.2 273.4C307.7 269.6 296.3 258.8 282.2 258.1C276.8 257.8 271.5 259.1 266.1 259.3C260.7 259.5 257.6 261.5 254.3 257.2Z" fill="#4B4065"/>
<path d="M249.7 272.8L269.8 219.7L262.4 195.9C259.6 186.9 260.7 177.2 265.5 169.1L269.4 162.6C276 151.3 288.7 144.9 301.7 146.4C312 147.6 321.3 153.5 326.6 162.4C329.9 167.9 331.8 174.2 332.1 180.6L334.6 230.7C334.9 236.3 331.4 241.5 326.1 243.4C323.6 244.3 320.9 244.4 318.3 243.6L301.7 238.8L301.3 283.6L312.4 329.4L271.4 335.6L249.7 272.8Z" fill="#B9C6E4"/>
<path d="M308.9 281.4C308.9 281.4 305.3 280.6 301.1 279.9L296.1 313.9C295.4 318.3 292.1 321.7 287.7 322.6C283.4 323.4 279.1 321.4 276.8 317.7L249.8 272.3C240.3 271.3 232.2 270.9 228.2 271.7C213.5 274.6 187.4 288.7 166.5 365.4L166.2 367.3C165 374 167.5 380.8 172.7 385.2L182.6 393.5L249.7 405.9L334.6 387L348.2 365.5C348.2 365.4 332.3 285.6 308.9 281.4Z" fill="#F7C689"/>
<path d="M252.2 190.4C265.8 196.7 284 195.5 298 190.3C312 185.1 322.9 169.2 324.5 154.3C318.6 146 307.7 142.7 297.6 143.7C287.5 144.7 278 150 270.9 157.3C263.8 164.6 256.3 181.1 252.2 190.4Z" fill="#4B4065"/>
<path d="M257.1 326.7L247.3 413.9" stroke="#F27932" stroke-miterlimit="10"/>
<path d="M458.6 382.2L427.6 372.1L436.6 354L385.5 377.1L244.5 404.1L247.3 384.4C237.9 384.4 228.8 379.3 220.8 374C211.7 368 202.3 361.2 191.4 360.5C188.8 360.3 186.2 360.5 183.6 361.1C177.9 381.9 166.6 428.9 174.3 445.8C184.4 467.7 192.6 489.1 304.3 445.8L390.6 420.9C390.6 420.9 412.4 418.7 430 418.1C435.1 417 440.1 415.4 444.9 413.5C448 412.1 449.9 409.1 449.9 405.7V402.5C449.9 402.5 453.8 400.3 454.9 398C456 395.7 454.9 390.6 454.9 390.6C454.9 390.6 461.2 390.8 462.7 387.3C464.2 383.8 458.6 382.2 458.6 382.2Z" fill="#B9C6E4"/>
<path d="M167.1 371C173 363.9 182 360 191.3 360.5C202.2 361.2 211.6 368 220.7 374C229.8 380 240.3 385.8 251.1 384.1" stroke="#F27932" stroke-miterlimit="10"/>
<path d="M321.2 337.8C333.2 349.9 335.2 370.6 325.8 384.8" stroke="#F27932" stroke-miterlimit="10"/>
<path d="M276.8 195.7C275.1 189.3 268.5 185.6 262.1 187.4C255.7 189.1 252 195.7 253.8 202.1C255.1 206.9 259.3 210.5 264 211.9C268.7 213.3 273.9 212.7 278.6 211.2" fill="#B9C6E4"/>
<path d="M300.8 197.1C305.7 191.7 314.1 191.3 319.5 196.3C321.3 198 322.6 200.1 323.3 202.4C315.4 205 306.7 203 300.8 197.1Z" fill="white"/>
<path d="M310.4 199.4C310.2 197.1 310.8 194.8 312 192.8C317.4 193.3 321.9 197.1 323.4 202.3C319.5 203.6 315.4 203.8 311.4 202.9C310.8 201.8 310.5 200.7 310.4 199.4Z" fill="#4B4065"/>
<path d="M304.3 185.7C309.2 181.3 316.7 181.8 321.1 186.7L321.2 186.8C315.3 186.6 310.1 186 304.3 185.7Z" fill="#4B4065" stroke="#4B4065" stroke-width="0.25" stroke-linejoin="round"/>
<path d="M301.7 197.4C303.9 194.6 307.2 192.9 310.7 192.8C314.1 192.7 317.4 194.2 319.7 196.8C321 198.2 321.9 200 322.3 201.9C322.4 202.5 323.4 202.3 323.3 201.6C322.4 198 320 195 316.7 193.2C311.3 190.5 304.7 191.9 300.9 196.7C300.6 197.2 301.3 198 301.7 197.4Z" fill="#4B4065"/>
<path d="M331 199.9C333 201.2 334.9 202.7 336.7 204.3C337.4 204.8 338 205.6 338.4 206.4C338.9 208 337.7 209.7 336.3 210.6C334.9 211.5 333.2 212.1 332 213.2" fill="#B9C6E4"/>
<path d="M312.1 212.3C315.7 216.3 321.1 218.1 326.4 216.9" stroke="#4B4065" stroke-miterlimit="10"/>
<path d="M454.9 390.6L419.1 389.1" stroke="#495894" stroke-miterlimit="10"/>
<path d="M450 402.4L416.6 405.8" stroke="#495894" stroke-miterlimit="10"/>
<path d="M233.6 416.2L244.4 404.1" stroke="#495894" stroke-miterlimit="10"/>
<path opacity="0.21" d="M299.3 221.3C304.271 221.3 308.3 217.271 308.3 212.3C308.3 207.329 304.271 203.3 299.3 203.3C294.329 203.3 290.3 207.329 290.3 212.3C290.3 217.271 294.329 221.3 299.3 221.3Z" fill="#EF749B"/>
<path opacity="0.19" d="M301.5 267.2C296.5 267.4 291.8 263.1 289.7 258.5C287.6 253.9 287.1 248.8 286 243.9C284.9 239 283.8 232.3 279.7 229.3L302.1 238.6C302 248 301.5 258 301.5 267.2Z" fill="#495894"/>
<path d="M648 197.5C662.7 190.5 676.8 182.3 690.2 173C687.6 156.3 684.2 139.7 680.1 123.2C658.7 129.7 641.5 148.6 620.7 158.6C613.4 162.1 605.6 164.6 597.6 166V274.4C631.7 279.4 666.5 273.7 697.1 257.9C696.9 234.8 695.3 211.7 692.4 188.7L648 197.5Z" fill="#4B4065"/>
<path d="M570.8 455.8L555.1 508.4L570.4 508.3" fill="#B9C6E4"/>
<path d="M666.2 551.2H601.3L570.8 520V455.8H666.2V551.2Z" fill="white" stroke="#F27932" stroke-miterlimit="10"/>
<path d="M646.3 493.5C645.6 487.5 639.4 483.5 634 484.5C629 485.4 624.5 490 622.2 495.1C619.7 490.1 615 485.7 610 485C604.5 484.3 598.5 488.6 598.1 494.6C597.8 499.2 600.4 503.4 603.4 506.6C608.7 512.3 622.8 520.8 622.8 520.8C628.3 517.3 636.5 511.6 641.6 505.7C644.4 502.3 646.9 498 646.3 493.5Z" fill="#ED4F2E"/>
<path d="M422.3 95.2L429.4 114.9C431.2 119.9 435.9 123.2 441.2 123.2H530C535.4 123.2 540.2 119.8 541.9 114.7L548.5 95.2H422.3Z" fill="#495894"/>
<path d="M261.7 153.4C265.1 146.6 260.9 137.6 253.9 134.6C246.9 131.6 238.5 133.7 232.7 138.6C226.9 143.5 223.6 150.8 221.8 158.2C220.1 165.3 220.8 174.5 227.4 177.6C233.8 180.6 241.3 175.7 245.5 170C249.7 164.3 252.8 157.3 258.9 153.7" fill="#4B4065"/>
<path d="M142.981 503.864C142.981 502.58 142.729 501.566 142.225 500.822C141.721 500.066 141.031 499.526 140.155 499.202C139.279 498.866 138.277 498.698 137.149 498.698H133.567V509.282H137.023C138.187 509.282 139.213 509.126 140.101 508.814C140.989 508.49 141.691 507.938 142.207 507.158C142.723 506.366 142.981 505.268 142.981 503.864ZM146.329 503.828C146.329 505.76 145.915 507.308 145.087 508.472C144.271 509.636 143.143 510.482 141.703 511.01C140.263 511.538 138.607 511.802 136.735 511.802H133.567V521H130.435V496.214H136.771C139.723 496.214 142.051 496.838 143.755 498.086C145.471 499.322 146.329 501.236 146.329 503.828ZM158.861 494.414V516.32C158.861 517.256 159.149 517.922 159.725 518.318C160.313 518.702 161.069 518.894 161.993 518.894C162.569 518.894 163.115 518.834 163.631 518.714C164.147 518.594 164.663 518.432 165.179 518.228L165.989 520.442C165.473 520.694 164.831 520.916 164.063 521.108C163.307 521.312 162.449 521.414 161.489 521.414C159.809 521.414 158.447 520.952 157.403 520.028C156.359 519.092 155.837 517.802 155.837 516.158V496.808H150.023V494.414H158.861ZM186.639 516.86C186.639 517.616 186.765 518.168 187.017 518.516C187.269 518.864 187.659 519.122 188.187 519.29L187.449 521.414C186.633 521.306 185.919 521.048 185.307 520.64C184.695 520.22 184.251 519.59 183.975 518.75C183.291 519.626 182.439 520.292 181.419 520.748C180.399 521.192 179.271 521.414 178.035 521.414C176.139 521.414 174.645 520.88 173.553 519.812C172.461 518.744 171.915 517.328 171.915 515.564C171.915 513.608 172.677 512.108 174.201 511.064C175.725 510.02 177.927 509.498 180.807 509.498H183.597V507.914C183.597 506.546 183.195 505.58 182.391 505.016C181.599 504.44 180.495 504.152 179.079 504.152C178.455 504.152 177.723 504.23 176.883 504.386C176.043 504.53 175.131 504.776 174.147 505.124L173.355 502.838C174.519 502.406 175.611 502.1 176.631 501.92C177.651 501.74 178.623 501.65 179.547 501.65C181.911 501.65 183.681 502.202 184.857 503.306C186.045 504.398 186.639 505.886 186.639 507.77V516.86ZM178.809 519.11C179.745 519.11 180.639 518.876 181.491 518.408C182.343 517.928 183.045 517.268 183.597 516.428V511.55H180.861C178.773 511.55 177.297 511.91 176.433 512.63C175.581 513.35 175.155 514.316 175.155 515.528C175.155 516.704 175.455 517.598 176.055 518.21C176.667 518.81 177.585 519.11 178.809 519.11ZM203.221 518.804C204.169 518.804 205.051 518.648 205.867 518.336C206.695 518.024 207.457 517.628 208.153 517.148L209.629 519.128C208.801 519.836 207.805 520.394 206.641 520.802C205.477 521.21 204.337 521.414 203.221 521.414C201.337 521.414 199.729 521.012 198.397 520.208C197.077 519.392 196.069 518.252 195.373 516.788C194.677 515.312 194.329 513.584 194.329 511.604C194.329 509.708 194.677 508.01 195.373 506.51C196.081 504.998 197.095 503.81 198.415 502.946C199.747 502.082 201.361 501.65 203.257 501.65C204.469 501.65 205.603 501.836 206.659 502.208C207.727 502.568 208.705 503.114 209.593 503.846L208.117 505.862C207.313 505.298 206.503 504.878 205.687 504.602C204.883 504.314 204.061 504.17 203.221 504.17C201.589 504.17 200.245 504.782 199.189 506.006C198.133 507.23 197.605 509.096 197.605 511.604C197.605 513.284 197.845 514.658 198.325 515.726C198.817 516.782 199.483 517.562 200.323 518.066C201.175 518.558 202.141 518.804 203.221 518.804ZM218.615 512.594C218.675 514.058 218.957 515.258 219.461 516.194C219.965 517.118 220.631 517.802 221.459 518.246C222.287 518.678 223.187 518.894 224.159 518.894C225.131 518.894 226.007 518.75 226.787 518.462C227.579 518.174 228.389 517.748 229.217 517.184L230.639 519.182C229.751 519.878 228.737 520.424 227.597 520.82C226.469 521.216 225.311 521.414 224.123 521.414C222.287 521.414 220.721 521 219.425 520.172C218.129 519.344 217.139 518.192 216.455 516.716C215.783 515.228 215.447 513.506 215.447 511.55C215.447 509.63 215.789 507.926 216.473 506.438C217.157 504.95 218.117 503.78 219.353 502.928C220.589 502.076 222.047 501.65 223.727 501.65C225.323 501.65 226.697 502.028 227.849 502.784C229.001 503.528 229.883 504.596 230.495 505.988C231.119 507.368 231.431 509.018 231.431 510.938C231.431 511.262 231.425 511.568 231.413 511.856C231.401 512.132 231.383 512.378 231.359 512.594H218.615ZM223.763 504.134C222.359 504.134 221.183 504.632 220.235 505.628C219.299 506.624 218.765 508.166 218.633 510.254H228.515C228.479 508.226 228.035 506.702 227.183 505.682C226.331 504.65 225.191 504.134 223.763 504.134ZM240.849 494.126V504.638C241.593 503.642 242.505 502.898 243.585 502.406C244.677 501.902 245.781 501.65 246.897 501.65C248.745 501.65 250.095 502.142 250.947 503.126C251.799 504.11 252.225 505.478 252.225 507.23V521H249.201V507.302C249.201 506.162 248.937 505.334 248.409 504.818C247.881 504.29 247.053 504.026 245.925 504.026C245.205 504.026 244.521 504.188 243.873 504.512C243.225 504.836 242.643 505.238 242.127 505.718C241.611 506.198 241.185 506.69 240.849 507.194V521H237.825V494.45L240.849 494.126ZM266.629 501.65C268.417 501.65 269.911 502.058 271.111 502.874C272.323 503.678 273.229 504.818 273.829 506.294C274.441 507.77 274.747 509.51 274.747 511.514C274.747 513.446 274.435 515.156 273.811 516.644C273.187 518.132 272.269 519.302 271.057 520.154C269.857 520.994 268.369 521.414 266.593 521.414C264.817 521.414 263.323 521.006 262.111 520.19C260.899 519.374 259.981 518.228 259.357 516.752C258.745 515.264 258.439 513.53 258.439 511.55C258.439 509.594 258.751 507.872 259.375 506.384C259.999 504.896 260.917 503.738 262.129 502.91C263.353 502.07 264.853 501.65 266.629 501.65ZM266.629 504.116C264.997 504.116 263.761 504.722 262.921 505.934C262.093 507.134 261.679 509.006 261.679 511.55C261.679 514.046 262.087 515.9 262.903 517.112C263.731 518.324 264.961 518.93 266.593 518.93C268.225 518.93 269.449 518.324 270.265 517.112C271.093 515.9 271.507 514.034 271.507 511.514C271.507 508.994 271.099 507.134 270.283 505.934C269.467 504.722 268.249 504.116 266.629 504.116ZM288.377 494.414V516.32C288.377 517.256 288.665 517.922 289.241 518.318C289.829 518.702 290.585 518.894 291.509 518.894C292.085 518.894 292.631 518.834 293.147 518.714C293.663 518.594 294.179 518.432 294.695 518.228L295.505 520.442C294.989 520.694 294.347 520.916 293.579 521.108C292.823 521.312 291.965 521.414 291.005 521.414C289.325 521.414 287.963 520.952 286.919 520.028C285.875 519.092 285.353 517.802 285.353 516.158V496.808H279.539V494.414H288.377ZM313.923 494.036L316.947 494.414V521H314.301L314.013 518.498C313.305 519.506 312.489 520.244 311.565 520.712C310.653 521.18 309.675 521.414 308.631 521.414C306.987 521.414 305.631 521 304.563 520.172C303.495 519.344 302.703 518.192 302.187 516.716C301.671 515.228 301.413 513.506 301.413 511.55C301.413 509.654 301.707 507.962 302.295 506.474C302.883 504.974 303.729 503.798 304.833 502.946C305.949 502.082 307.287 501.65 308.847 501.65C309.939 501.65 310.899 501.842 311.727 502.226C312.555 502.598 313.287 503.15 313.923 503.882V494.036ZM309.639 504.08C308.055 504.08 306.837 504.698 305.985 505.934C305.133 507.17 304.707 509.042 304.707 511.55C304.707 513.182 304.881 514.55 305.229 515.654C305.577 516.758 306.087 517.586 306.759 518.138C307.443 518.69 308.277 518.966 309.261 518.966C310.341 518.966 311.259 518.66 312.015 518.048C312.783 517.436 313.419 516.746 313.923 515.978V506.51C313.407 505.742 312.783 505.148 312.051 504.728C311.319 504.296 310.515 504.08 309.639 504.08ZM326.545 512.594C326.605 514.058 326.887 515.258 327.391 516.194C327.895 517.118 328.561 517.802 329.389 518.246C330.217 518.678 331.117 518.894 332.089 518.894C333.061 518.894 333.937 518.75 334.717 518.462C335.509 518.174 336.319 517.748 337.147 517.184L338.569 519.182C337.681 519.878 336.667 520.424 335.527 520.82C334.399 521.216 333.241 521.414 332.053 521.414C330.217 521.414 328.651 521 327.355 520.172C326.059 519.344 325.069 518.192 324.385 516.716C323.713 515.228 323.377 513.506 323.377 511.55C323.377 509.63 323.719 507.926 324.403 506.438C325.087 504.95 326.047 503.78 327.283 502.928C328.519 502.076 329.977 501.65 331.657 501.65C333.253 501.65 334.627 502.028 335.779 502.784C336.931 503.528 337.813 504.596 338.425 505.988C339.049 507.368 339.361 509.018 339.361 510.938C339.361 511.262 339.355 511.568 339.343 511.856C339.331 512.132 339.313 512.378 339.289 512.594H326.545ZM331.693 504.134C330.289 504.134 329.113 504.632 328.165 505.628C327.229 506.624 326.695 508.166 326.563 510.254H336.445C336.409 508.226 335.965 506.702 335.113 505.682C334.261 504.65 333.121 504.134 331.693 504.134ZM345.935 521V518.678H348.887V504.368H345.935V502.046H351.191L351.749 506.528C352.481 504.968 353.369 503.762 354.413 502.91C355.457 502.058 356.837 501.632 358.553 501.632C359.081 501.632 359.549 501.674 359.957 501.758C360.377 501.83 360.803 501.926 361.235 502.046L360.353 504.746C359.957 504.638 359.597 504.56 359.273 504.512C358.949 504.452 358.577 504.422 358.157 504.422C356.705 504.422 355.457 504.938 354.413 505.97C353.369 507.002 352.535 508.562 351.911 510.65V518.678H355.763V521H345.935ZM358.319 508.454V504.332L358.625 502.046H361.235L360.803 508.454H358.319Z" fill="black"/>
</svg>
